<?xml version="1.0" encoding="UTF-8"?>
<svg xmlns="http://www.w3.org/2000/svg" width="512" height="512" viewBox="0 0 512 512">
  <path id="efbaf59a2" d="M 312.225 445.346 L 320.439 460.924 L 283.569 471.829 L 270.055 458.633 L 248.281 443.936 L 275.963 420.821 L 288.933 415.983 L 312.533 424.020 Z" fill="#2f2f2f"/>
  <path id="e266bc715" d="M 90.090 343.518 L 84.784 359.964 L 65.280 368.023 L 41.413 366.590 L 34.503 346.794 L 30.407 334.725 L 38.714 318.980 L 65.647 319.724 L 75.324 324.842 Z" fill="#a34a4a"/>
  <path id="e9115362f" d="M 499.808 73.427 L 485.252 106.949 L 463.283 107.231 L 437.056 112.847 L 427.122 89.940 L 425.747 70.041 L 443.219 55.275 L 459.506 38.634 L 475.080 59.163 Z" fill="#a34a4a"/>
  <path id="e12d49646" d="M 406.798 199.313 L 393.001 210.307 L 352.024 222.034 L 325.147 220.927 L 324.705 161.401 L 350.744 138.479 L 386.912 164.073 Z" fill="#a34a4a"/>
  <path id="ee3fbf501" d="M 313.584 161.016 L 298.247 168.783 L 265.373 165.505 L 262.157 142.438 L 306.104 127.828 Z" fill="#a34a4a"/>
  <path id="e6493c93c" d="M 459.939 443.662 L 461.846 465.350 L 420.112 473.631 L 404.347 456.797 L 398.693 422.488 L 421.079 419.658 L 449.835 412.670 Z" fill="#d9b310"/>
</svg>
