<?xml version="1.0" encoding="UTF-8"?>
<svg xmlns="http://www.w3.org/2000/svg" width="512" height="512" viewBox="0 0 512 512">
  <path id="eb4b076ed" d="M 241.832 454.009 L 218.876 485.260 L 187.968 483.843 L 180.023 476.264 L 165.282 442.626 L 204.643 426.092 L 224.958 418.106 Z" fill="#8c5a3c"/>
  <path id="e49ef1d31" d="M 117.831 388.457 L 113.483 398.268 L 68.387 408.887 L 65.799 387.483 L 80.140 351.947 L 107.374 352.239 Z" fill="#2f2f2f"/>
  <path id="eaf7b285e" d="M 101.886 303.451 L 87.367 331.341 L 76.061 342.333 L 51.149 324.035 L 36.470 312.581 L 42.430 286.549 L 73.449 283.235 L 96.495 287.947 Z" fill="#c0c0c0"/>
  <path id="e10bc81d3" d="M 373.313 207.366 L 361.415 228.979 L 336.010 226.887 L 329.008 215.192 L 323.552 190.480 L 336.461 188.478 L 358.815 192.270 Z" fill="#d9b310"/>
  <path id="e6a098ce8" d="M 163.535 179.333 L 151.514 205.936 L 131.836 211.719 L 115.348 175.411 L 117.337 159.425 L 146.138 144.965 Z" fill="#8c5a3c"/>
  <path id="e2b6ebc0b" d="M 109.453 103.170 L 96.547 137.062 L 41.197 154.438 L 29.723 134.372 L 15.914 86.928 L 65.283 60.722 L 93.252 91.692 Z" fill="#8c5a3c"/>
  <path id="e97b4fead" d="M 355.484 314.551 L 348.015 335.256 L 324.637 339.434 L 320.929 330.589 L 318.544 305.712 L 332.990 299.633 L 344.773 297.334 Z" fill="#8c5a3c"/>
</svg>
